<svg aria-hidden="true" style="width:0;height:0;position:absolute;overflow:hidden" xmlns="http://www.w3.org/2000/svg"><defs><symbol id="icon-next_arrow" viewBox="0 0 215 32"><path d="m188.87 5.457 10.482 7.128L0 12.591v5.577l198.103-.006-9.874 5.675 2.778 4.835 22.724-13.056L192.008.845l-3.137 4.612z"/></symbol><symbol id="icon-prev_arrow" viewBox="0 0 215 32"><path d="m25.987 25.301-10.482-7.128 199.352-.006V12.59l-198.103.006 9.874-5.675-2.777-4.835L1.127 15.142 22.85 29.913l3.137-4.612z"/></symbol><symbol id="icon-btn_L" viewBox="0 0 32 32"><path d="M21.177 14.541a.193.193 0 0 0-.144-.231l-1.69-.39a.193.193 0 0 0-.087.375l1.503.347-.347 1.503a.193.193 0 0 0 .375.087l.39-1.69zm-9.894 6.249 9.809-6.129-.204-.327-9.809 6.129.204.327zm17.38-3.671c.009-.15.038-.291.087-.422a.955.955 0 0 1 .181-.306l.188.122a1.08 1.08 0 0 0-.162.276 1.137 1.137 0 0 0-.08.36c-.01.173.009.299.058.379a.26.26 0 0 0 .212.127.193.193 0 0 0 .16-.057.37.37 0 0 0 .096-.161c.025-.068.047-.144.065-.229s.04-.169.063-.254a.958.958 0 0 1 .093-.224.48.48 0 0 1 .159-.161.444.444 0 0 1 .253-.048c.099.006.187.039.262.099s.132.144.169.253c.04.111.056.244.046.399-.007.118-.03.235-.069.351a.952.952 0 0 1-.138.284l-.191-.119a.82.82 0 0 0 .133-.253c.031-.091.049-.183.054-.275.009-.164-.012-.287-.066-.369a.256.256 0 0 0-.208-.127.213.213 0 0 0-.166.053.475.475 0 0 0-.103.164c-.025.07-.047.147-.066.229a2.964 2.964 0 0 1-.067.25c-.024.084-.055.16-.093.227a.397.397 0 0 1-.395.214.447.447 0 0 1-.272-.106.565.565 0 0 1-.165-.267 1.17 1.17 0 0 1-.039-.409zm1.546 2.378a.841.841 0 0 1-.166.362.591.591 0 0 1-.306.204.886.886 0 0 1-.448.003l-1.035-.222.052-.241 1.011.217c.188.04.339.023.455-.051.117-.072.194-.193.23-.362a.694.694 0 0 0-.007-.349.534.534 0 0 0-.174-.264.752.752 0 0 0-.33-.149l-.936-.201.052-.241 2.517.54-.052.241-1.225-.263.102-.028a.653.653 0 0 1 .244.336c.048.14.053.297.017.469zm-2.443 1.648a.957.957 0 0 1 .289-.395.898.898 0 0 1 .922-.109c.169.069.302.168.4.295s.157.27.177.429a.957.957 0 0 1-.071.485.941.941 0 0 1-.291.398.84.84 0 0 1-.427.181.935.935 0 0 1-.492-.071.95.95 0 0 1-.4-.295.86.86 0 0 1-.18-.43.977.977 0 0 1 .072-.488zm.203.083a.707.707 0 0 0-.053.357.641.641 0 0 0 .14.316.769.769 0 0 0 .312.226c.133.054.26.074.381.059a.616.616 0 0 0 .319-.128.667.667 0 0 0 .215-.287.67.67 0 0 0-.088-.673.76.76 0 0 0-.312-.226.762.762 0 0 0-.381-.059.663.663 0 0 0-.323.13.678.678 0 0 0-.21.285zm-1.254 1.962a.848.848 0 0 1 .319-.303.824.824 0 0 1 .43-.09c.157.011.32.07.488.176s.29.227.366.362c.078.137.113.278.106.424s-.053.286-.139.421a.914.914 0 0 1-.348.33.825.825 0 0 1-.45.102.965.965 0 0 1-.471-.158c-.157-.099-.272-.218-.348-.359s-.109-.291-.102-.45a.915.915 0 0 1 .148-.456zm-.053-1.145 2.11 1.331-.126.2-.464-.293-.295-.215-.33-.167-1.027-.648.132-.208zm.247 1.247a.7.7 0 0 0-.112.34.67.67 0 0 0 .082.339c.06.109.149.201.269.276s.24.116.362.122a.662.662 0 0 0 .602-.317.69.69 0 0 0 .111-.344.67.67 0 0 0-.082-.339c-.059-.106-.148-.196-.268-.272s-.24-.117-.363-.127a.662.662 0 0 0-.341.072.714.714 0 0 0-.26.25zm-.921 3.674a.83.83 0 0 1-.342.205.594.594 0 0 1-.368-.004.892.892 0 0 1-.372-.25l-.729-.767.178-.17.712.749c.132.139.267.21.404.214.137.007.269-.05.395-.169a.689.689 0 0 0 .191-.292.535.535 0 0 0 .006-.317.765.765 0 0 0-.188-.309l-.66-.694.178-.17 1.255 1.32-.171.163-.344-.362.092.041a.655.655 0 0 1 .012.415.865.865 0 0 1-.251.396zm-2.926-.029a.956.956 0 0 1 .461-.166.902.902 0 0 1 .826.425c.102.152.157.308.167.469s-.021.312-.093.454-.182.263-.33.362a.961.961 0 0 1-.464.168.848.848 0 0 1-.455-.088.951.951 0 0 1-.369-.334.953.953 0 0 1-.167-.469.866.866 0 0 1 .091-.457.97.97 0 0 1 .333-.364zm.121.182a.686.686 0 0 0-.243.267.642.642 0 0 0-.061.341c.01.124.055.244.133.362.08.119.174.206.283.262a.62.62 0 0 0 .336.072.666.666 0 0 0 .339-.118.662.662 0 0 0 .303-.608.748.748 0 0 0-.133-.362.765.765 0 0 0-.283-.262.67.67 0 0 0-.341-.073.676.676 0 0 0-.334.119zm-1.586.713 1.332 1.42-.218.09-1.224-1.322.099-.041.054 1.807-.195.081-1.234-1.318.099-.041.06 1.804-.208.086-.059-1.947.215-.089 1.172 1.235-.067.028-.041-1.703.215-.089zm-3.699 1.11c.149-.022.293-.022.431-.001a.937.937 0 0 1 .336.115l-.082.209a1.106 1.106 0 0 0-.672-.108c-.172.025-.291.07-.359.134a.257.257 0 0 0-.081.233c.01.067.039.115.088.145a.376.376 0 0 0 .177.061c.072.01.151.016.238.018s.174.005.261.011a.94.94 0 0 1 .238.046.473.473 0 0 1 .19.123c.05.056.083.135.098.238.015.098 0 .19-.043.276s-.115.158-.213.217a.994.994 0 0 1-.381.126 1.332 1.332 0 0 1-.357.003.937.937 0 0 1-.306-.078l.078-.211a1.008 1.008 0 0 0 .555.076c.163-.024.278-.07.348-.139a.257.257 0 0 0 .082-.23.212.212 0 0 0-.086-.152.49.49 0 0 0-.182-.068 2.156 2.156 0 0 0-.238-.018 2.75 2.75 0 0 1-.258-.015 1.01 1.01 0 0 1-.242-.045.393.393 0 0 1-.289-.343.443.443 0 0 1 .049-.288.569.569 0 0 1 .228-.216c.104-.057.235-.098.393-.121zm-2.053 1.996a.826.826 0 0 1-.388-.09.59.59 0 0 1-.262-.259.888.888 0 0 1-.094-.438l.008-1.058.246.002-.008 1.034c-.001.192.046.337.142.435.094.1.228.151.401.152a.703.703 0 0 0 .341-.077.537.537 0 0 0 .224-.224.751.751 0 0 0 .079-.353l.007-.958.246.002-.02 2.574-.246-.002.01-1.252.048.094a.649.649 0 0 1-.28.306.875.875 0 0 1-.455.111zm-2.085-2.053a.965.965 0 0 1 .446.201.902.902 0 0 1 .298.88c-.033.18-.102.331-.206.453s-.232.209-.383.262a.953.953 0 0 1-.489.031.968.968 0 0 1-.45-.202.845.845 0 0 1-.266-.38.934.934 0 0 1-.033-.496.95.95 0 0 1 .206-.453.865.865 0 0 1 .384-.265.966.966 0 0 1 .492-.03zm-.04.215a.698.698 0 0 0-.36.022.632.632 0 0 0-.28.203.755.755 0 0 0-.156.353.748.748 0 0 0 .021.385c.038.115.101.21.191.285.089.077.198.128.325.151s.247.014.358-.026c.111-.039.205-.105.283-.199s.13-.211.156-.352a.773.773 0 0 0-.021-.385.673.673 0 0 0-.194-.29.687.687 0 0 0-.322-.147zm-2.177-.823a.868.868 0 0 1 .363.249.816.816 0 0 1 .176.402c.021.156-.003.327-.072.514s-.162.331-.279.433c-.118.104-.249.168-.393.191s-.291.007-.441-.049a.913.913 0 0 1-.395-.272.809.809 0 0 1-.192-.419.972.972 0 0 1 .057-.493c.064-.174.158-.312.28-.414s.262-.167.419-.192a.921.921 0 0 1 .477.051zm1.11-.288-.868 2.339-.221-.082.191-.514.149-.333.095-.357.422-1.139.231.086zm-1.169.499a.698.698 0 0 0-.355-.04.668.668 0 0 0-.315.15c-.094.081-.166.188-.215.32s-.064.259-.045.38a.656.656 0 0 0 .435.524.69.69 0 0 0 .36.037.668.668 0 0 0 .315-.15c.091-.08.161-.186.21-.318s.065-.259.049-.381a.656.656 0 0 0-.141-.319.71.71 0 0 0-.298-.203zm-3.787-.153a.82.82 0 0 1-.27-.293.59.59 0 0 1-.07-.361.879.879 0 0 1 .17-.414l.604-.869.202.141-.59.849c-.109.158-.152.304-.128.439.021.136.103.253.246.352a.687.687 0 0 0 .325.128.532.532 0 0 0 .311-.059.766.766 0 0 0 .265-.247l.546-.787.202.141-1.039 1.496-.194-.135.285-.41-.022.099a.654.654 0 0 1-.404.095.874.874 0 0 1-.439-.165zm-.562-2.866c.125.123.21.263.256.418a.898.898 0 0 1 .003.466.95.95 0 0 1-.252.429c-.128.13-.27.216-.425.258s-.31.042-.464.001a.94.94 0 0 1-.421-.25.947.947 0 0 1-.258-.42.85.85 0 0 1-.006-.464.942.942 0 0 1 .252-.429.95.95 0 0 1 .425-.258.858.858 0 0 1 .466-.003.966.966 0 0 1 .424.252zm-.153.155a.637.637 0 0 0-.657-.174.755.755 0 0 0-.327.204.746.746 0 0 0-.199.33.61.61 0 0 0-.002.344c.03.114.092.217.184.308a.662.662 0 0 0 .657.174.739.739 0 0 0 .327-.204.773.773 0 0 0 .199-.33.656.656 0 0 0 .002-.349.678.678 0 0 0-.184-.303zm-1.017-1.4-1.116 1.595-.133-.195 1.043-1.469.061.089-1.757.424-.119-.175 1.037-1.478.061.089-1.753.43-.127-.186 1.894-.458.131.192-.967 1.401-.041-.06 1.659-.39.131.192zm-1.849-3.388c.052.141.082.281.09.422a.95.95 0 0 1-.043.353l-.221-.037a1.106 1.106 0 0 0-.033-.679c-.06-.163-.129-.27-.205-.323a.257.257 0 0 0-.245-.031.19.19 0 0 0-.123.116.382.382 0 0 0-.023.186c.005.072.015.151.032.236s.031.171.044.258a.987.987 0 0 1 .005.242.477.477 0 0 1-.081.211.441.441 0 0 1-.212.145c-.093.035-.186.04-.279.015s-.179-.079-.257-.164a1.01 1.01 0 0 1-.203-.347 1.352 1.352 0 0 1-.078-.349.95.95 0 0 1 .012-.316l.223.032a.786.786 0 0 0-.02.285c.008.096.029.187.061.274.057.154.126.258.208.312a.258.258 0 0 0 .242.033.214.214 0 0 0 .131-.115.48.48 0 0 0 .029-.192 1.924 1.924 0 0 0-.032-.236 2.775 2.775 0 0 1-.039-.256 1.024 1.024 0 0 1-.006-.246.391.391 0 0 1 .276-.354.445.445 0 0 1 .292-.012.575.575 0 0 1 .259.178c.078.09.144.209.2.359zm-2.367-1.555a.83.83 0 0 1 .008-.398.588.588 0 0 1 .199-.309.895.895 0 0 1 .409-.182l1.037-.21.049.241-1.013.205c-.188.038-.32.114-.396.229-.079.113-.101.254-.066.424a.69.69 0 0 0 .146.317.533.533 0 0 0 .265.173.756.756 0 0 0 .362.005l.939-.19.049.242-2.523.511-.049-.242 1.228-.249-.082.066a.657.657 0 0 1-.358-.211.869.869 0 0 1-.203-.423zm1.577-2.46a.952.952 0 0 1-.105.478.89.89 0 0 1-.321.338.94.94 0 0 1-.479.134c-.183.005-.344-.031-.485-.108s-.253-.184-.335-.321a.954.954 0 0 1-.131-.472.953.953 0 0 1 .105-.482.846.846 0 0 1 .317-.338.938.938 0 0 1 .479-.134.95.95 0 0 1 .485.108.862.862 0 0 1 .338.321.973.973 0 0 1 .131.476zm-.218.006a.706.706 0 0 0-.096-.348.64.64 0 0 0-.256-.233.76.76 0 0 0-.377-.08.751.751 0 0 0-.372.1.617.617 0 0 0-.24.246.677.677 0 0 0-.081.349.663.663 0 0 0 .353.58.75.75 0 0 0 .377.08.763.763 0 0 0 .372-.1.655.655 0 0 0 .243-.25.678.678 0 0 0 .077-.346zm.352-2.318a.853.853 0 0 1-.169.407.825.825 0 0 1-.357.256c-.148.053-.321.065-.517.036s-.357-.09-.482-.183c-.127-.093-.216-.208-.268-.345s-.067-.283-.044-.441a.91.91 0 0 1 .185-.443.82.82 0 0 1 .37-.275.953.953 0 0 1 .494-.046c.183.027.338.089.463.187s.217.221.275.37a.916.916 0 0 1 .049.477zm.512 1.026-2.468-.363.034-.233.542.08.357.077.369.019 1.201.177-.036.244zm-.73-1.041a.693.693 0 0 0-.035-.356.666.666 0 0 0-.212-.277c-.099-.075-.218-.123-.358-.144s-.266-.009-.381.035a.665.665 0 0 0-.423.534.69.69 0 0 0 .038.36.666.666 0 0 0 .212.277c.097.073.215.119.355.14s.267.01.383-.031a.669.669 0 0 0 .283-.204.717.717 0 0 0 .137-.334zm-.629-3.766a.842.842 0 0 1 .231-.324.59.59 0 0 1 .339-.143.878.878 0 0 1 .441.081l.975.412-.096.227-.952-.403c-.177-.075-.329-.086-.456-.035-.129.049-.227.153-.294.313a.703.703 0 0 0-.059.344c.01.107.05.205.121.292.07.085.168.154.296.208l.882.373-.096.227-1.678-.71.092-.217.46.195-.101-.001a.65.65 0 0 1-.176-.376.86.86 0 0 1 .072-.463zm2.689-1.136a.959.959 0 0 1-.357.335.9.9 0 0 1-.927-.062c-.153-.099-.267-.22-.339-.364s-.104-.295-.095-.454a.94.94 0 0 1 .159-.463.955.955 0 0 1 .359-.338.846.846 0 0 1 .453-.1.936.936 0 0 1 .471.16.941.941 0 0 1 .339.364.871.871 0 0 1 .098.456.966.966 0 0 1-.161.466zm-.183-.119a.688.688 0 0 0 .117-.341.638.638 0 0 0-.08-.337.752.752 0 0 0-.266-.279.755.755 0 0 0-.364-.128.617.617 0 0 0-.337.067c-.106.053-.194.134-.264.242s-.108.222-.113.34c-.007.117.018.229.075.338s.145.201.266.279c.119.077.24.119.364.128a.676.676 0 0 0 .342-.068.685.685 0 0 0 .259-.241zm1.158-1.279-1.788-.77.164-.17 1.65.723-.075.077-.771-1.635.147-.152 1.657.716-.075.077-.776-1.63.157-.162.832 1.761-.161.167-1.568-.663.051-.052.718 1.545-.161.167zm2.91-2.487c-.127.08-.259.139-.394.175a.947.947 0 0 1-.354.031l-.01-.224a1.086 1.086 0 0 0 .658-.174c.147-.093.238-.182.274-.267a.258.258 0 0 0-.02-.246.193.193 0 0 0-.139-.097.373.373 0 0 0-.187.016c-.07.019-.145.046-.224.08s-.161.066-.243.096a.993.993 0 0 1-.236.055.48.48 0 0 1-.223-.035.44.44 0 0 1-.186-.178c-.053-.084-.077-.174-.072-.27s.041-.191.107-.285c.067-.097.166-.187.298-.27.1-.063.208-.112.325-.148a.943.943 0 0 1 .311-.053l.015.225a.792.792 0 0 0-.283.039 1.018 1.018 0 0 0-.255.116c-.139.088-.226.177-.262.268a.254.254 0 0 0 .018.243.214.214 0 0 0 .14.105c.058.01.123.006.194-.011a1.96 1.96 0 0 0 .224-.08c.08-.034.16-.064.242-.091a.997.997 0 0 1 .239-.057.4.4 0 0 1 .404.197c.057.09.081.184.072.283a.568.568 0 0 1-.121.29 1.17 1.17 0 0 1-.31.269zm1.069-2.661a.826.826 0 0 1 .391-.074c.126.006.241.05.344.131.105.08.193.201.263.363l.42.972-.226.098-.41-.949c-.076-.176-.178-.29-.306-.34-.127-.054-.269-.046-.429.023a.704.704 0 0 0-.281.208.531.531 0 0 0-.114.295.756.756 0 0 0 .07.355l.38.879-.226.098-1.021-2.364.226-.098.497 1.15-.082-.067a.66.66 0 0 1 .132-.394.863.863 0 0 1 .372-.285zm2.695 1.046a.967.967 0 0 1-.49-.004.906.906 0 0 1-.627-.685c-.042-.178-.04-.344.006-.497s.128-.285.245-.394a.944.944 0 0 1 .435-.225.945.945 0 0 1 .493.004.842.842 0 0 1 .396.241.934.934 0 0 1 .23.441.95.95 0 0 1-.006.497.867.867 0 0 1-.244.397.966.966 0 0 1-.438.226zM12.9 3.88a.704.704 0 0 0 .321-.166.643.643 0 0 0 .175-.299.76.76 0 0 0 .001-.385.755.755 0 0 0-.175-.344.62.62 0 0 0-.29-.184c-.113-.035-.232-.037-.358-.007s-.232.086-.317.168c-.086.08-.145.179-.179.296s-.034.246-.001.385a.765.765 0 0 0 .175.344.66.66 0 0 0 .294.187.684.684 0 0 0 .354.005zm2.292-.131a.85.85 0 0 1-.433-.081.814.814 0 0 1-.324-.296c-.082-.134-.13-.3-.142-.499s.014-.368.08-.509c.065-.143.159-.254.282-.334s.264-.124.423-.134a.91.91 0 0 1 .471.089.828.828 0 0 1 .346.305.96.96 0 0 1 .147.474c.011.185-.018.349-.088.492s-.172.259-.305.346a.906.906 0 0 1-.457.146zm-.898.712-.154-2.49.236-.015.034.547-.002.365.057.365.075 1.212-.246.015zm.867-.929a.691.691 0 0 0 .341-.108.655.655 0 0 0 .227-.264c.053-.112.076-.239.067-.38s-.046-.263-.113-.365a.658.658 0 0 0-.61-.303.655.655 0 0 0-.571.376c-.051.11-.072.235-.064.376s.045.264.11.369a.658.658 0 0 0 .258.234.712.712 0 0 0 .355.065zm3.64-1.395a.828.828 0 0 1 .365.159.587.587 0 0 1 .21.302.888.888 0 0 1 .012.448l-.202 1.039-.242-.047.198-1.015c.037-.188.017-.34-.06-.454-.074-.116-.196-.19-.367-.223a.701.701 0 0 0-.349.013.531.531 0 0 0-.261.179.759.759 0 0 0-.143.333l-.183.94-.242-.047.348-1.788.232.045-.096.49-.02-.099a.653.653 0 0 1 .331-.25.87.87 0 0 1 .468-.026zm1.655 2.39a.964.964 0 0 1-.402-.28.896.896 0 0 1-.13-.92c.065-.171.161-.306.286-.407s.267-.163.424-.186a.941.941 0 0 1 .486.06.967.967 0 0 1 .405.282.843.843 0 0 1 .191.423.934.934 0 0 1-.06.494.96.96 0 0 1-.286.407.87.87 0 0 1-.426.19.972.972 0 0 1-.489-.061zm.079-.204a.704.704 0 0 0 .358.045.643.643 0 0 0 .313-.147.767.767 0 0 0 .219-.318.753.753 0 0 0 .05-.382.62.62 0 0 0-.135-.316.67.67 0 0 0-.292-.209.66.66 0 0 0-.671.103.75.75 0 0 0-.218.318.758.758 0 0 0-.05.382.663.663 0 0 0 .137.32c.074.09.171.158.29.204zm1.531.891.391-1.907.2.126-.374 1.762-.091-.057 1.445-1.086.179.113-.365 1.768-.091-.057 1.439-1.09.191.12-1.556 1.172-.197-.124.332-1.67.062.039-1.368 1.016-.197-.124zm3.029 2.351a1.424 1.424 0 0 1-.251-.351.962.962 0 0 1-.102-.34l.217-.055a1.113 1.113 0 0 0 .303.609c.12.125.226.196.318.214a.261.261 0 0 0 .237-.069.197.197 0 0 0 .067-.156.384.384 0 0 0-.053-.18c-.033-.064-.075-.132-.124-.203s-.097-.144-.143-.219a1.005 1.005 0 0 1-.101-.22.482.482 0 0 1-.011-.226.441.441 0 0 1 .136-.218c.072-.069.155-.111.25-.125s.195.001.301.047a.992.992 0 0 1 .324.237c.082.085.152.181.211.288.06.106.099.204.115.294l-.217.06a.78.78 0 0 0-.096-.269 1.042 1.042 0 0 0-.165-.226c-.114-.118-.219-.186-.315-.202a.255.255 0 0 0-.234.067.212.212 0 0 0-.074.158.466.466 0 0 0 .051.187c.035.066.076.134.124.203.05.071.096.144.138.218a.971.971 0 0 1 .104.223.39.39 0 0 1-.11.435.448.448 0 0 1-.263.128.565.565 0 0 1-.308-.06 1.164 1.164 0 0 1-.327-.249zm2.802.481a.834.834 0 0 1 .153.368.583.583 0 0 1-.058.363.875.875 0 0 1-.301.331l-.865.61-.142-.201.845-.596c.157-.111.247-.234.27-.369.027-.135-.01-.273-.11-.415a.704.704 0 0 0-.261-.232.534.534 0 0 0-.312-.051.747.747 0 0 0-.333.142L26 8.548l-.142-.201 2.104-1.484.142.201-1.024.722.049-.094a.656.656 0 0 1 .413.049c.136.06.254.162.355.305zm-.455 2.879a.958.958 0 0 1-.096-.48.903.903 0 0 1 .541-.755c.165-.078.328-.11.488-.096s.305.067.436.159.234.218.31.38c.077.163.11.324.098.483a.842.842 0 0 1-.154.437.945.945 0 0 1-.384.316.952.952 0 0 1-.488.096.871.871 0 0 1-.439-.157.97.97 0 0 1-.311-.383zm.198-.093a.692.692 0 0 0 .228.28.643.643 0 0 0 .328.11.76.76 0 0 0 .377-.078.74.74 0 0 0 .3-.242.66.66 0 0 0 .053-.674.672.672 0 0 0-.23-.275c-.096-.067-.205-.105-.327-.114s-.248.017-.377.078a.75.75 0 0 0-.3.242.661.661 0 0 0-.122.326.685.685 0 0 0 .068.348zm.595 2.218a.844.844 0 0 1-.009-.44.826.826 0 0 1 .223-.378c.114-.108.267-.189.459-.241s.363-.062.515-.026c.153.035.282.104.384.207s.176.232.218.386a.923.923 0 0 1 .01.48.822.822 0 0 1-.228.401.966.966 0 0 1-.434.242c-.178.049-.345.054-.5.015s-.288-.115-.401-.228a.917.917 0 0 1-.237-.417zm-.882-.733 2.406-.662.062.227-.529.145-.358.073-.345.131-1.171.322-.065-.238zm1.088.658a.687.687 0 0 0 .176.312.669.669 0 0 0 .305.168c.121.029.249.025.385-.012s.248-.099.334-.185a.66.66 0 0 0 .172-.658.679.679 0 0 0-.18-.314.669.669 0 0 0-.305-.168c-.118-.028-.245-.023-.381.015s-.249.098-.338.183a.66.66 0 0 0-.177.3.715.715 0 0 0 .009.361z"/></symbol><symbol id="icon-btn_M" viewBox="0 0 31 32"><path d="M21.314 13.667a.214.214 0 0 0-.177-.244l-1.896-.3a.214.214 0 0 0-.067.421l1.686.267-.267 1.686a.214.214 0 0 0 .421.067l.3-1.896zm-10.095 7.412 10.01-7.273-.251-.345-10.01 7.273.251.345zm17.082-4.277a1.58 1.58 0 0 1 .1-.467c.058-.145.126-.257.203-.337l.207.137a1.215 1.215 0 0 0-.274.702c-.013.192.008.331.061.42a.284.284 0 0 0 .233.142.215.215 0 0 0 .177-.061.417.417 0 0 0 .108-.178c.028-.075.053-.159.074-.253s.046-.187.072-.28c.026-.091.061-.173.105-.247a.535.535 0 0 1 .177-.177.502.502 0 0 1 .281-.051c.11.007.206.044.289.111s.145.161.186.282c.043.123.059.271.048.442-.009.13-.035.259-.079.387a1.05 1.05 0 0 1-.155.313l-.211-.133a.875.875 0 0 0 .149-.279c.035-.1.055-.202.062-.304.012-.181-.011-.318-.069-.409a.282.282 0 0 0-.229-.142.238.238 0 0 0-.185.057.533.533 0 0 0-.116.181 2.234 2.234 0 0 0-.074.253 3.499 3.499 0 0 1-.076.276 1.12 1.12 0 0 1-.105.251.431.431 0 0 1-.438.232.494.494 0 0 1-.3-.12.634.634 0 0 1-.181-.297 1.277 1.277 0 0 1-.039-.453zm1.666 2.648a.912.912 0 0 1-.195.395.653.653 0 0 1-.345.217.986.986 0 0 1-.496-.009l-1.138-.276.064-.265 1.112.27c.206.05.375.036.505-.044.132-.076.22-.207.266-.394a.77.77 0 0 0 .003-.387.6.6 0 0 0-.185-.298.83.83 0 0 0-.361-.174l-1.03-.25.064-.265 2.769.671-.064.265-1.347-.327.113-.028a.727.727 0 0 1 .26.379c.049.157.05.33.004.519zm-2.766 1.712c.083-.176.196-.317.341-.421a.998.998 0 0 1 1.026-.072c.183.086.325.201.427.348s.159.307.172.483c.014.176-.021.353-.105.532a1.064 1.064 0 0 1-.343.425.92.92 0 0 1-.482.177 1.045 1.045 0 0 1-.54-.104 1.055 1.055 0 0 1-.427-.348.961.961 0 0 1-.176-.485 1.07 1.07 0 0 1 .106-.535zm.22.102a.761.761 0 0 0-.077.392c.013.13.059.249.138.357.081.111.192.2.333.266a.825.825 0 0 0 .418.085.678.678 0 0 0 .359-.125.747.747 0 0 0 .253-.305.732.732 0 0 0-.061-.749.822.822 0 0 0-.333-.266.836.836 0 0 0-.418-.085.736.736 0 0 0-.364.126.747.747 0 0 0-.248.304zm-1.501 2.062a.954.954 0 0 1 .375-.311.91.91 0 0 1 .482-.066c.172.025.348.102.525.232s.303.273.377.428c.076.157.104.315.084.476s-.081.312-.186.454c-.113.155-.25.268-.41.338a.908.908 0 0 1-.505.078 1.061 1.061 0 0 1-.508-.21c-.165-.121-.284-.262-.356-.423s-.098-.329-.078-.504c.019-.173.085-.337.199-.492zm.03-1.268 2.227 1.631-.154.211-.489-.358-.31-.26-.351-.209-1.084-.794.161-.22zm.176 1.395a.765.765 0 0 0-.15.366.738.738 0 0 0 .064.38c.058.125.15.233.276.326s.256.146.391.162c.134.016.262-.002.382-.053s.223-.135.308-.251a.76.76 0 0 0 .149-.372.738.738 0 0 0-.064-.38c-.057-.121-.149-.228-.275-.32s-.256-.148-.391-.168a.739.739 0 0 0-.382.053.782.782 0 0 0-.307.256zm-1.366 3.959a.919.919 0 0 1-.399.187.654.654 0 0 1-.405-.046.976.976 0 0 1-.381-.317l-.717-.926.216-.167.7.905c.13.168.27.262.421.281.15.023.302-.024.454-.142a.78.78 0 0 0 .244-.3.588.588 0 0 0 .042-.348.831.831 0 0 0-.173-.361l-.649-.838.216-.167 1.234 1.594-.207.16-.338-.437.097.056a.722.722 0 0 1-.034.458.963.963 0 0 1-.321.408zm-3.208-.398c.174-.087.351-.126.529-.118.178.012.341.066.49.163.15.1.27.239.359.417.09.181.13.36.119.537s-.067.339-.165.486a1.049 1.049 0 0 1-.412.352 1.06 1.06 0 0 1-.532.12.93.93 0 0 1-.488-.16 1.038 1.038 0 0 1-.359-.417 1.062 1.062 0 0 1-.119-.538.964.964 0 0 1 .163-.489c.101-.148.239-.265.416-.354zm.109.216a.761.761 0 0 0-.304.259.701.701 0 0 0-.113.366.84.84 0 0 0 .096.416.826.826 0 0 0 .275.326.68.68 0 0 0 .359.126.74.74 0 0 0 .388-.082.741.741 0 0 0 .418-.625.829.829 0 0 0-.096-.416.845.845 0 0 0-.275-.326.729.729 0 0 0-.364-.127.755.755 0 0 0-.383.084zm-1.815.543 1.228 1.771-.253.063-1.126-1.646.115-.029-.234 1.987-.227.057-1.137-1.643.115-.029-.227 1.985-.242.061.251-2.141.25-.063 1.084 1.542-.078.02.231-1.871.25-.063zm-4.247.554c.166.005.323.033.47.084.147.053.261.117.344.191l-.129.211a1.248 1.248 0 0 0-.711-.249c-.192-.006-.331.019-.417.075a.286.286 0 0 0-.134.238.214.214 0 0 0 .068.175.424.424 0 0 0 .181.102c.076.025.161.047.255.066s.188.039.282.063c.091.023.175.055.251.096.076.043.137.1.183.171a.496.496 0 0 1 .061.279c-.003.11-.037.208-.101.293s-.156.15-.275.195a1.13 1.13 0 0 1-.44.063 1.476 1.476 0 0 1-.39-.066 1.056 1.056 0 0 1-.318-.144l.126-.215a.873.873 0 0 0 .284.139c.101.031.203.049.306.052.182.006.317-.022.406-.084a.284.284 0 0 0 .134-.234.241.241 0 0 0-.063-.183.527.527 0 0 0-.185-.109 2.623 2.623 0 0 0-.255-.066 3.212 3.212 0 0 1-.278-.066 1.047 1.047 0 0 1-.254-.096.44.44 0 0 1-.248-.43.494.494 0 0 1 .109-.304.638.638 0 0 1 .29-.191c.124-.042.275-.061.451-.055zm-2.578 1.754a.918.918 0 0 1-.402-.181.652.652 0 0 1-.228-.337.979.979 0 0 1-.007-.496l.237-1.147.267.055-.232 1.12c-.043.208-.023.376.061.503.081.129.215.213.403.252a.78.78 0 0 0 .386-.01.594.594 0 0 0 .291-.195.834.834 0 0 0 .162-.366l.215-1.038.267.055-.577 2.79-.267-.055.281-1.357.032.112a.726.726 0 0 1-.37.273.955.955 0 0 1-.518.022zm-1.781-2.694c.179.076.324.184.434.325a.996.996 0 0 1 .11 1.022c-.079.186-.189.333-.332.439s-.301.17-.477.19a1.063 1.063 0 0 1-.536-.084 1.054 1.054 0 0 1-.437-.327.929.929 0 0 1-.195-.474 1.035 1.035 0 0 1 .084-.544 1.05 1.05 0 0 1 .332-.439.958.958 0 0 1 .478-.194c.178-.019.357.009.539.086zm-.094.223a.771.771 0 0 0-.395-.063.707.707 0 0 0-.352.151.846.846 0 0 0-.254.343.833.833 0 0 0-.07.421.675.675 0 0 0 .138.354c.078.105.183.186.315.241s.263.075.393.058c.129-.015.247-.064.354-.147s.192-.197.254-.343a.846.846 0 0 0 .07-.421.728.728 0 0 0-.14-.359.746.746 0 0 0-.313-.236zm-2.115-1.423a.947.947 0 0 1 .324.364.9.9 0 0 1 .083.479c-.018.173-.089.351-.213.533s-.262.313-.414.392c-.154.081-.312.115-.473.102s-.315-.07-.461-.169a1.02 1.02 0 0 1-.353-.397.9.9 0 0 1-.096-.501c.014-.176.078-.348.192-.515.115-.169.252-.293.41-.372s.325-.11.502-.096c.174.013.34.073.499.18zm1.27-.017L8.75 28.454l-.216-.147.341-.502.249-.319.197-.358.755-1.112.226.153zm-1.39.228a.768.768 0 0 0-.372-.136.736.736 0 0 0-.378.078c-.123.062-.228.158-.316.287s-.137.261-.148.396a.732.732 0 0 0 .329.678.77.77 0 0 0 .377.135.736.736 0 0 0 .378-.078c.119-.061.223-.157.31-.286s.139-.262.153-.397a.735.735 0 0 0-.067-.38.772.772 0 0 0-.267-.297zm-4.004-1.217a.921.921 0 0 1-.202-.392.646.646 0 0 1 .032-.406.986.986 0 0 1 .303-.392l.9-.749.175.209-.88.732c-.163.136-.252.279-.266.431-.017.151.035.3.158.448.092.11.195.188.309.233a.592.592 0 0 0 .349.029.831.831 0 0 0 .355-.186l.815-.678.175.209-1.55 1.29-.167-.201.425-.354-.053.099a.73.73 0 0 1-.459-.017.966.966 0 0 1-.42-.305zm.284-3.211c.093.171.139.345.138.524a.994.994 0 0 1-.549.869c-.178.097-.355.143-.533.138s-.342-.054-.492-.147-.272-.226-.367-.399a1.05 1.05 0 0 1-.14-.527.928.928 0 0 1 .142-.493 1.04 1.04 0 0 1 .404-.374c.175-.096.353-.142.533-.138a.96.96 0 0 1 .495.145c.151.095.274.229.369.402zm-.212.116a.77.77 0 0 0-.27-.294.709.709 0 0 0-.37-.1.837.837 0 0 0-.412.111.827.827 0 0 0-.316.287.674.674 0 0 0-.112.363.743.743 0 0 0 .097.385.738.738 0 0 0 .64.394.83.83 0 0 0 .412-.111.84.84 0 0 0 .316-.287.746.746 0 0 0 .114-.368.764.764 0 0 0-.098-.38zM4.367 20.3l-1.728 1.287-.072-.251 1.606-1.18.033.114-1.994-.167-.065-.225 1.603-1.191.033.114-1.992-.159-.069-.24 2.149.178.071.247-1.504 1.135-.022-.078 1.878.168.071.247zm-.71-4.153c.001.166-.021.324-.065.473a1.027 1.027 0 0 1-.178.351l-.216-.121a1.233 1.233 0 0 0 .221-.72c-.001-.192-.032-.33-.092-.414a.285.285 0 0 0-.243-.125c-.074.001-.132.025-.172.074a.421.421 0 0 0-.095.185c-.022.077-.041.163-.056.258s-.032.19-.052.285a1.15 1.15 0 0 1-.086.254.526.526 0 0 1-.164.189.49.49 0 0 1-.276.071c-.11.001-.209-.029-.296-.09s-.156-.15-.206-.267a1.114 1.114 0 0 1-.08-.437 1.466 1.466 0 0 1 .051-.392c.032-.131.076-.239.132-.324l.22.117a.86.86 0 0 0-.128.289 1.163 1.163 0 0 0-.04.308c.001.182.034.316.099.402a.282.282 0 0 0 .239.125.239.239 0 0 0 .18-.07.531.531 0 0 0 .102-.189 2.42 2.42 0 0 0 .056-.258c.015-.095.033-.188.055-.281.02-.095.049-.181.086-.258a.44.44 0 0 1 .42-.264.496.496 0 0 1 .308.097.634.634 0 0 1 .202.283c.047.123.071.272.073.449zm-1.855-2.536a.905.905 0 0 1 .166-.408.65.65 0 0 1 .328-.241.988.988 0 0 1 .495-.027l1.155.193-.045.269-1.129-.188c-.21-.035-.376-.008-.5.08-.126.085-.205.223-.236.412a.773.773 0 0 0 .025.386.588.588 0 0 0 .206.283.849.849 0 0 0 .372.148l1.045.174-.045.269-2.811-.468.045-.269 1.367.228-.111.036a.721.721 0 0 1-.286-.359.961.961 0 0 1-.042-.517zm2.621-1.884c-.069.182-.172.33-.309.445a1.001 1.001 0 0 1-1.018.148c-.189-.072-.34-.177-.451-.315s-.181-.295-.208-.469a1.046 1.046 0 0 1 .065-.538c.071-.187.174-.336.31-.449a.938.938 0 0 1 .467-.213c.175-.029.358-.008.547.064.187.071.337.176.451.315a.966.966 0 0 1 .212.47 1.07 1.07 0 0 1-.066.542zm-.226-.085a.768.768 0 0 0 .048-.397.708.708 0 0 0-.164-.346.837.837 0 0 0-.352-.24.836.836 0 0 0-.423-.054.676.676 0 0 0-.349.151.747.747 0 0 0-.23.324.74.74 0 0 0 .116.742.824.824 0 0 0 .352.24.853.853 0 0 0 .423.054.735.735 0 0 0 .354-.153.76.76 0 0 0 .225-.321zM5.538 9.47a.938.938 0 0 1-.352.337.902.902 0 0 1-.476.101c-.174-.012-.354-.076-.541-.193s-.322-.25-.407-.399c-.087-.151-.126-.307-.119-.468s.058-.317.152-.467c.102-.163.23-.285.384-.367a.903.903 0 0 1 .498-.114c.176.008.35.065.522.172.174.109.302.241.386.396s.122.321.114.497a1.005 1.005 0 0 1-.163.505zm.062 1.267L3.259 9.273l.139-.221.514.322.328.237.365.183 1.139.713-.145.231zm-.278-1.379a.757.757 0 0 0 .122-.376.728.728 0 0 0-.092-.374c-.067-.12-.166-.222-.299-.304s-.266-.127-.401-.133c-.135-.006-.261.021-.377.081s-.212.151-.289.272a.728.728 0 0 0-.029.756c.066.117.165.216.297.299s.267.129.403.139a.736.736 0 0 0 .377-.081.786.786 0 0 0 .287-.278zm1.071-4.054a.917.917 0 0 1 .384-.215.653.653 0 0 1 .407.017.982.982 0 0 1 .403.288l.782.872-.203.182-.764-.852c-.142-.158-.289-.241-.441-.25-.152-.012-.299.046-.442.174a.76.76 0 0 0-.221.317.587.587 0 0 0-.016.35c.03.118.096.234.199.348l.708.789-.203.182-1.346-1.5.195-.174.369.412-.101-.049a.714.714 0 0 1 .001-.459.955.955 0 0 1 .29-.43zm3.2.174c-.167.099-.34.152-.519.157a.992.992 0 0 1-.5-.127 1.047 1.047 0 0 1-.389-.39c-.104-.174-.156-.349-.158-.527s.041-.343.129-.497a1.05 1.05 0 0 1 .385-.381c.172-.102.346-.155.522-.159a.936.936 0 0 1 .498.123c.156.086.285.216.389.39.102.172.155.347.158.527a.953.953 0 0 1-.127.5c-.09.155-.219.282-.389.383zm-.124-.208a.773.773 0 0 0 .284-.281.706.706 0 0 0 .086-.373.838.838 0 0 0-.127-.407.832.832 0 0 0-.298-.305.69.69 0 0 0-.367-.099c-.131 0-.258.037-.381.111s-.216.167-.279.282c-.064.113-.095.236-.091.372s.045.271.127.407a.84.84 0 0 0 .298.305.74.74 0 0 0 .373.1.76.76 0 0 0 .376-.112zm1.754-.684L9.871 2.908l.248-.081 1.241 1.561-.113.037.09-1.998.223-.073 1.252 1.557-.113.037.083-1.996.237-.078-.096 2.153-.244.08-1.192-1.46.077-.025-.096 1.883-.244.08zm4.17-.878a1.58 1.58 0 0 1-.475-.049 1.023 1.023 0 0 1-.357-.166l.114-.22a1.215 1.215 0 0 0 .727.196c.192-.008.329-.043.411-.106a.283.283 0 0 0 .116-.247.215.215 0 0 0-.08-.17.416.416 0 0 0-.188-.088c-.078-.02-.164-.035-.259-.047s-.191-.025-.286-.042a1.07 1.07 0 0 1-.257-.078.544.544 0 0 1-.195-.157.491.491 0 0 1-.081-.273c-.005-.11.022-.21.079-.299s.144-.161.26-.215c.118-.056.263-.088.434-.095.13-.006.262.007.394.037.132.028.241.068.328.121l-.11.224a.873.873 0 0 0-.293-.118 1.12 1.12 0 0 0-.309-.029c-.182.008-.315.045-.399.113a.282.282 0 0 0-.117.243.233.233 0 0 0 .077.177c.05.041.115.073.192.096.08.02.167.035.259.047.095.011.189.027.283.046.095.016.182.042.261.077a.434.434 0 0 1 .279.411.49.49 0 0 1-.087.311.632.632 0 0 1-.275.212 1.278 1.278 0 0 1-.446.088zm2.486-1.946c.162.021.3.072.414.151.116.077.2.184.252.32a.979.979 0 0 1 .043.494l-.153 1.161-.27-.036.15-1.135c.028-.211-.005-.376-.097-.497-.09-.123-.23-.197-.42-.222a.775.775 0 0 0-.385.038.592.592 0 0 0-.276.215.832.832 0 0 0-.135.377l-.139 1.051-.27-.036.373-2.825.27.036-.181 1.374-.04-.11a.73.73 0 0 1 .349-.299.966.966 0 0 1 .515-.06zm2.013 2.56a1.074 1.074 0 0 1-.456-.293.998.998 0 0 1-.182-1.011c.065-.191.165-.345.3-.462s.288-.191.462-.224c.174-.033.354-.017.54.046.189.064.342.163.459.295.12.133.196.286.229.459.035.174.02.357-.045.548a1.053 1.053 0 0 1-.3.462.957.957 0 0 1-.463.227 1.077 1.077 0 0 1-.544-.047zm.078-.229a.764.764 0 0 0 .398.034.71.71 0 0 0 .34-.176.843.843 0 0 0 .229-.36.843.843 0 0 0 .04-.425.685.685 0 0 0-.163-.344.737.737 0 0 0-.331-.218.74.74 0 0 0-.739.142.828.828 0 0 0-.229.36.85.85 0 0 0-.04.425c.025.133.08.249.165.348a.763.763 0 0 0 .329.214zm2.16 1.232a.943.943 0 0 1-.35-.339.897.897 0 0 1-.118-.471c.006-.174.064-.356.173-.547s.238-.331.385-.421c.148-.092.302-.138.464-.136s.319.046.472.134c.166.096.293.219.381.37.091.15.135.314.132.493a1.065 1.065 0 0 1-.153.528c-.102.177-.229.311-.382.401s-.316.134-.493.133a1.01 1.01 0 0 1-.511-.144zm-1.264.11 1.379-2.392.226.13-.303.526-.225.336-.17.372-.671 1.164-.236-.136zm1.368-.329a.75.75 0 0 0 .381.108.746.746 0 0 0 .371-.105c.118-.071.216-.174.294-.309s.118-.271.119-.406a.73.73 0 0 0-.378-.652.768.768 0 0 0-.386-.107.746.746 0 0 0-.371.105c-.114.07-.211.173-.288.308s-.119.271-.124.407a.73.73 0 0 0 .095.374.79.79 0 0 0 .288.277zm4.115.929c.114.118.19.243.23.376a.651.651 0 0 1-.002.407.98.98 0 0 1-.274.413l-.844.813-.189-.196.824-.794c.153-.147.231-.297.234-.449.006-.152-.057-.297-.191-.435a.783.783 0 0 0-.325-.21.599.599 0 0 0-.351-.004.837.837 0 0 0-.341.211l-.763.735-.189-.196 1.452-1.399.181.188-.398.384.045-.102a.724.724 0 0 1 .46-.016.966.966 0 0 1 .441.274zm-.01 3.269a1.063 1.063 0 0 1-.174-.513 1 1 0 0 1 .11-.504c.083-.16.209-.293.377-.401.17-.109.344-.167.522-.175s.345.03.501.112c.156.082.288.206.394.372.108.168.167.34.176.516a.937.937 0 0 1-.107.502 1.036 1.036 0 0 1-.377.401 1.052 1.052 0 0 1-.522.175.959.959 0 0 1-.504-.11 1.06 1.06 0 0 1-.396-.376zm.204-.13a.783.783 0 0 0 .29.275.712.712 0 0 0 .376.074.846.846 0 0 0 .403-.14.823.823 0 0 0 .295-.308.674.674 0 0 0 .086-.37.746.746 0 0 0-.123-.377.736.736 0 0 0-.667-.348.832.832 0 0 0-.403.14.832.832 0 0 0-.295.308.745.745 0 0 0-.088.375.76.76 0 0 0 .125.372zm.735 1.729 1.631-1.407.09.245-1.518 1.292-.041-.112 2.001.024.081.22-1.514 1.303-.041-.112 1.998.016.086.234-2.156-.024-.089-.242 1.419-1.239.028.076-1.886-.033-.089-.242z"/></symbol><symbol id="icon-btn_S" viewBox="0 0 29 32"><path d="M19.851 13.314a.21.21 0 0 0-.175-.241l-1.871-.296a.21.21 0 1 0-.066.416l1.663.263-.263 1.664a.21.21 0 1 0 .416.066l.296-1.871zm-9.622 7.067 9.538-6.93-.247-.341-9.538 6.93.248.341zm14.472-3.328a2.27 2.27 0 0 1 .173-.658c.093-.203.196-.358.311-.466l.285.208a1.72 1.72 0 0 0-.436.981c-.031.272-.011.472.059.601a.409.409 0 0 0 .322.218.304.304 0 0 0 .256-.076.592.592 0 0 0 .165-.246c.045-.105.086-.224.123-.355s.077-.263.122-.394c.044-.127.099-.242.166-.345a.758.758 0 0 1 .264-.24c.105-.054.239-.072.403-.054.156.017.291.077.404.177s.195.238.245.413c.053.179.066.389.039.632a2.088 2.088 0 0 1-.139.546 1.5 1.5 0 0 1-.242.436l-.291-.203c.101-.117.178-.246.231-.387.056-.141.093-.283.109-.428.029-.257.005-.453-.072-.586a.402.402 0 0 0-.317-.217.34.34 0 0 0-.267.069.765.765 0 0 0-.177.25 3.414 3.414 0 0 0-.123.355 5.02 5.02 0 0 1-.126.388c-.044.131-.1.248-.166.35a.625.625 0 0 1-.64.303.7.7 0 0 1-.419-.19.906.906 0 0 1-.238-.434 1.826 1.826 0 0 1-.026-.647zm1.971 4.049a1.31 1.31 0 0 1-.356.518.937.937 0 0 1-.531.236c-.208.027-.44-.011-.698-.114l-1.55-.62.145-.36 1.515.606c.281.112.522.126.721.041.202-.081.353-.248.456-.502.076-.19.104-.371.083-.544a.839.839 0 0 0-.2-.457 1.188 1.188 0 0 0-.473-.319l-1.403-.561.145-.361 3.771 1.508-.145.361-1.835-.734.166-.016c.159.162.255.358.289.587.037.231.004.475-.1.732zm-4.158 1.344a1.51 1.51 0 0 1 .619-.463 1.43 1.43 0 0 1 .733-.075c.254.041.491.152.712.331.224.182.38.391.469.628s.113.479.07.727c-.042.248-.152.48-.33.698-.18.22-.388.376-.622.468-.237.094-.48.12-.728.078a1.491 1.491 0 0 1-.712-.331 1.496 1.496 0 0 1-.469-.628 1.373 1.373 0 0 1-.075-.73 1.51 1.51 0 0 1 .334-.702zm.268.217a1.094 1.094 0 0 0-.244.514.999.999 0 0 0 .067.541c.073.182.196.342.369.483.176.143.359.23.549.262a.983.983 0 0 0 .541-.047c.175-.064.328-.176.457-.334s.208-.329.236-.514c.031-.182.011-.362-.059-.542s-.193-.34-.369-.483a1.201 1.201 0 0 0-.549-.262 1.059 1.059 0 0 0-.548.048 1.086 1.086 0 0 0-.449.333zm-2.803 2.079c.207-.137.425-.215.655-.232a1.3 1.3 0 0 1 .678.147c.219.117.416.306.591.567s.273.513.296.756c.025.247-.015.473-.119.678s-.261.378-.471.517a1.44 1.44 0 0 1-.714.252 1.303 1.303 0 0 1-.715-.142 1.52 1.52 0 0 1-.578-.529c-.162-.243-.253-.489-.271-.74s.029-.488.142-.713c.11-.222.279-.409.507-.561zm.659-1.682 2.19 3.27-.31.206-.481-.719-.288-.499-.368-.452-1.066-1.592.324-.215zm-.444 1.953c-.17.113-.297.252-.38.417a1.046 1.046 0 0 0-.1.54c.016.195.087.385.21.57s.272.321.444.408c.172.087.352.125.538.115s.365-.072.535-.185c.17-.113.297-.255.381-.424.081-.168.114-.348.1-.54-.017-.19-.088-.377-.212-.562s-.271-.323-.443-.415a1.05 1.05 0 0 0-.538-.115 1.108 1.108 0 0 0-.536.193zm-3.94 4.175c-.231.036-.44.022-.627-.041a.924.924 0 0 1-.473-.337c-.129-.165-.215-.384-.258-.658l-.257-1.65.384-.059.251 1.612c.047.299.157.513.332.641.172.132.393.177.664.136.202-.031.372-.1.511-.206a.833.833 0 0 0 .291-.405c.056-.164.067-.354.033-.57l-.233-1.493.384-.059.442 2.839-.368.057-.121-.779.082.137c-.058.22-.177.402-.358.548-.18.15-.407.246-.681.288zm-3.318-2.88c.274.04.513.138.715.293.198.158.344.355.438.59.094.239.12.499.078.78-.042.285-.142.527-.301.725s-.355.342-.59.433a1.492 1.492 0 0 1-.769.075 1.493 1.493 0 0 1-.72-.294 1.33 1.33 0 0 1-.439-.585 1.485 1.485 0 0 1-.078-.78c.042-.282.142-.523.301-.725a1.37 1.37 0 0 1 .591-.439 1.53 1.53 0 0 1 .775-.074zm-.051.341a1.101 1.101 0 0 0-.567.055 1.009 1.009 0 0 0-.431.335 1.196 1.196 0 0 0-.227.564c-.033.224-.015.426.054.605a.964.964 0 0 0 .317.439c.145.117.319.191.521.22s.39.009.562-.061c.172-.067.318-.177.436-.329s.194-.34.227-.564c.033-.22.014-.422-.054-.605a1.046 1.046 0 0 0-.321-.446 1.075 1.075 0 0 0-.516-.214zm-2.346-.831-.419 3.04-.327-.177.407-2.81.149.081-2.164 1.86-.294-.159.392-2.818.149.081-2.155 1.866-.313-.169 2.331-2.007.323.174-.35 2.66-.101-.055 2.05-1.742.323.174zm-4.598-3.622c.139.192.244.393.315.603.068.212.096.396.083.554l-.352.037a1.686 1.686 0 0 0-.077-.498 1.78 1.78 0 0 0-.262-.52c-.16-.222-.31-.357-.449-.405a.41.41 0 0 0-.386.055.305.305 0 0 0-.139.228.604.604 0 0 0 .043.293c.038.108.087.223.148.345s.12.246.175.373c.053.123.09.246.11.366a.747.747 0 0 1-.034.355.697.697 0 0 1-.262.31c-.127.092-.267.138-.419.14s-.306-.045-.46-.141a1.594 1.594 0 0 1-.455-.441 2.076 2.076 0 0 1-.265-.497 1.463 1.463 0 0 1-.114-.484l.353-.045c.004.155.034.302.09.441.053.142.122.272.208.39.152.21.301.338.448.386a.404.404 0 0 0 .381-.052.337.337 0 0 0 .151-.23.759.759 0 0 0-.037-.304 3.283 3.283 0 0 0-.148-.345 5.163 5.163 0 0 1-.168-.372 1.525 1.525 0 0 1-.113-.371.62.62 0 0 1 .271-.653.698.698 0 0 1 .439-.14.916.916 0 0 1 .469.162c.156.104.308.257.456.461zm-4.188-1.667a1.306 1.306 0 0 1-.085-.622.924.924 0 0 1 .235-.53c.136-.159.333-.287.593-.383l1.566-.579.136.364-1.53.566c-.284.105-.471.256-.562.453-.095.195-.095.42.001.677.071.192.173.345.305.459a.846.846 0 0 0 .456.205c.172.022.36-.005.566-.081l1.417-.524.136.364-3.809 1.409-.136-.364 1.853-.685-.112.123a1.037 1.037 0 0 1-.61-.241 1.369 1.369 0 0 1-.42-.609zm2.167-3.77c.015.277-.033.53-.145.759a1.414 1.414 0 0 1-.491.547 1.49 1.49 0 0 1-.749.232c-.288.016-.545-.035-.77-.15s-.406-.28-.542-.492a1.49 1.49 0 0 1-.226-.739 1.509 1.509 0 0 1 .145-.764c.112-.229.274-.411.486-.547.212-.139.462-.217.749-.232a1.51 1.51 0 0 1 .77.15c.225.112.408.276.547.491.136.216.212.464.227.744zm-.345.019a1.097 1.097 0 0 0-.167-.545 1.003 1.003 0 0 0-.414-.356 1.195 1.195 0 0 0-.598-.11 1.18 1.18 0 0 0-.583.174.971.971 0 0 0-.368.398c-.086.165-.124.35-.112.554s.068.384.172.539c.1.155.236.276.409.362s.372.122.598.11c.222-.012.416-.07.583-.174.162-.104.287-.238.373-.404.082-.165.118-.348.107-.548zm.667-3.427c-.061.241-.17.445-.329.612a1.288 1.288 0 0 1-.601.346c-.241.06-.514.052-.818-.024s-.547-.197-.727-.362c-.184-.166-.306-.361-.367-.583s-.06-.455.001-.699c.067-.265.187-.488.359-.666a1.29 1.29 0 0 1 .625-.374c.243-.067.504-.066.784.004.283.071.516.193.698.366s.307.381.374.624c.068.239.068.491.002.756zm.642 1.689-3.818-.954.091-.361.839.21.548.177.576.088 1.859.464-.095.377zm-.983-1.746c.05-.198.05-.386.001-.564a1.042 1.042 0 0 0-.289-.467c-.143-.134-.323-.227-.539-.281s-.417-.055-.603-.004a1.043 1.043 0 0 0-.748.772c-.05.198-.049.388.003.571.053.179.149.334.289.467.141.129.319.221.535.275s.418.058.607.011c.186-.051.345-.143.476-.276.129-.137.218-.305.268-.503zm.098-5.716c.147-.181.311-.311.493-.39a.932.932 0 0 1 .577-.069c.206.035.418.14.634.314l1.3 1.048-.245.302-1.27-1.024c-.236-.19-.462-.274-.678-.251-.216.018-.411.133-.583.345a1.094 1.094 0 0 0-.24.496.84.84 0 0 0 .056.495c.069.159.188.306.359.444l1.176.948-.245.302-2.237-1.803.235-.289.614.495-.153-.046a1.027 1.027 0 0 1-.103-.646c.033-.231.136-.455.311-.67zm4.35-.066a1.52 1.52 0 0 1-.727.263 1.434 1.434 0 0 1-.723-.141 1.497 1.497 0 0 1-.585-.524c-.161-.239-.25-.485-.267-.737s.032-.491.144-.716c.112-.225.285-.415.519-.572.236-.159.48-.247.731-.267.254-.021.494.024.72.137.229.11.424.285.585.524.159.236.248.482.267.737.019.251-.027.491-.141.721-.115.227-.29.419-.523.575zm-.193-.285c.173-.116.3-.256.383-.421.08-.168.111-.347.093-.537a1.19 1.19 0 0 0-.213-.569 1.188 1.188 0 0 0-.449-.411.975.975 0 0 0-.531-.112 1.06 1.06 0 0 0-.534.187 1.051 1.051 0 0 0-.476.959c.015.192.086.382.213.569.125.184.274.321.449.411.173.086.352.124.539.113.184-.014.36-.077.527-.188zm2.342-.991L8.765 3.699l.362-.087 1.588 2.358-.165.04.354-2.828.325-.079 1.604 2.355-.165.04.343-2.826.346-.084-.379 3.048-.356.086-1.529-2.209.112-.027-.349 2.664-.356.086zm5.835-.402a2.296 2.296 0 0 1-.638-.237 1.477 1.477 0 0 1-.433-.356l.236-.263a1.73 1.73 0 0 0 .933.53c.268.057.469.057.605.001a.407.407 0 0 0 .249-.299.305.305 0 0 0-.05-.263.605.605 0 0 0-.228-.189c-.1-.055-.214-.107-.341-.157s-.254-.103-.38-.16a1.558 1.558 0 0 1-.327-.199.754.754 0 0 1-.213-.286.7.7 0 0 1-.013-.406c.033-.153.105-.282.217-.385s.257-.171.436-.203c.183-.035.394-.028.633.023.182.039.359.103.53.192.172.085.308.18.409.283l-.232.27a1.257 1.257 0 0 0-.362-.268 1.61 1.61 0 0 0-.416-.15c-.253-.054-.45-.05-.591.014a.401.401 0 0 0-.248.294.337.337 0 0 0 .042.272.769.769 0 0 0 .231.201c.104.056.217.108.341.157.127.05.252.104.373.164.126.057.237.123.332.2a.615.615 0 0 1 .237.667.696.696 0 0 1-.231.398.908.908 0 0 1-.456.194 1.816 1.816 0 0 1-.647-.038zm4.27-1.56c.207.108.367.243.48.405.118.16.178.344.181.551.006.209-.056.436-.185.682l-.776 1.478-.345-.18.758-1.444c.141-.268.179-.506.114-.712-.06-.208-.211-.375-.454-.502a1.098 1.098 0 0 0-.534-.136.85.85 0 0 0-.476.153 1.192 1.192 0 0 0-.366.439l-.702 1.338-.345-.18L19.84 2.57l.345.18-.918 1.75.001-.166c.178-.142.382-.218.615-.229.234-.014.474.043.72.172zm.938 4.255a1.517 1.517 0 0 1-.402-.659 1.427 1.427 0 0 1-.003-.734c.066-.248.2-.472.401-.674.203-.204.428-.339.673-.404s.49-.065.733.001.465.198.664.396c.202.2.338.421.406.663.071.245.073.488.007.73-.064.245-.197.47-.401.674a1.502 1.502 0 0 1-.673.404 1.376 1.376 0 0 1-.737.003 1.53 1.53 0 0 1-.668-.399zm.243-.245c.148.146.311.244.49.292.181.046.363.041.547-.014.188-.055.361-.161.518-.319.16-.16.265-.333.316-.519a.958.958 0 0 0 .006-.541c-.047-.18-.143-.342-.289-.486s-.308-.238-.489-.284c-.179-.048-.361-.046-.547.006s-.359.158-.518.319a1.206 1.206 0 0 0-.316.519 1.044 1.044 0 0 0-.006.549c.05.178.146.337.289.478zm1.788 2.936a1.347 1.347 0 0 1-.17-.673c.008-.232.078-.452.211-.659.138-.206.345-.383.621-.531s.538-.222.783-.22c.248-.001.47.061.665.184s.352.296.472.517c.13.241.191.485.184.734-.002.25-.072.482-.209.696a1.508 1.508 0 0 1-.582.523c-.257.138-.512.204-.764.198s-.484-.076-.698-.21a1.443 1.443 0 0 1-.512-.558zm-1.615-.817 3.469-1.858.177.328-.762.408-.525.238-.486.322-1.689.904-.184-.342zm1.906.631c.097.18.224.319.38.417.16.097.336.147.529.151.196.003.392-.049.589-.154s.346-.239.449-.402c.103-.163.158-.337.166-.523s-.037-.369-.134-.549a1.043 1.043 0 0 0-.917-.57c-.191-.001-.385.051-.581.156s-.348.238-.456.4a1.047 1.047 0 0 0-.166.523 1.11 1.11 0 0 0 .142.551z"/></symbol><symbol id="icon-call-us_L" viewBox="0 0 32 32"><path d="M30.604 5.067 26.344.812a2.752 2.752 0 0 0-3.904 0l-4.588 4.579a2.76 2.76 0 0 0 0 3.912l3.584 3.588a16.215 16.215 0 0 1-3.456 5.091 16.249 16.249 0 0 1-5.088 3.464l-3.584-3.588a2.752 2.752 0 0 0-3.01-.603 2.715 2.715 0 0 0-.894.603L.812 22.437a2.76 2.76 0 0 0 0 3.912l4.256 4.256a4.79 4.79 0 0 0 3.368 1.396c.26 0 .512-.02.768-.064C14.5 31.065 19.756 28.245 24 24.006c4.24-4.247 7.056-9.503 7.936-14.802a4.768 4.768 0 0 0-1.332-4.136zM29.1 8.727c-.78 4.715-3.316 9.419-7.136 13.238S13.444 28.32 8.728 29.1c-.592.1-1.2-.1-1.632-.528l-4.18-4.179 4.432-4.436 4.828 4.835.864-.32a19.243 19.243 0 0 0 11.428-11.431l.32-.864-4.832-4.827 4.432-4.435 4.18 4.179c.432.432.632 1.04.532 1.632z"/></symbol><symbol id="icon-call-us_M" viewBox="0 0 32 32"><path d="M30.604 5.067 26.344.812a2.752 2.752 0 0 0-3.904 0l-4.588 4.579a2.76 2.76 0 0 0 0 3.912l3.584 3.588a16.215 16.215 0 0 1-3.456 5.091 16.249 16.249 0 0 1-5.088 3.464l-3.584-3.588a2.752 2.752 0 0 0-3.01-.603 2.715 2.715 0 0 0-.894.603L.812 22.437a2.76 2.76 0 0 0 0 3.912l4.256 4.256a4.79 4.79 0 0 0 3.368 1.396c.26 0 .512-.02.768-.064C14.5 31.065 19.756 28.245 24 24.006c4.24-4.247 7.056-9.503 7.936-14.802a4.768 4.768 0 0 0-1.332-4.136zM29.1 8.727c-.78 4.715-3.316 9.419-7.136 13.238S13.444 28.32 8.728 29.1c-.592.1-1.2-.1-1.632-.528l-4.18-4.179 4.432-4.436 4.828 4.835.864-.32a19.243 19.243 0 0 0 11.428-11.431l.32-.864-4.832-4.827 4.432-4.435 4.18 4.179c.432.432.632 1.04.532 1.632z"/></symbol><symbol id="icon-call-us_S" viewBox="0 0 32 32"><path d="M30.604 5.067 26.344.812a2.752 2.752 0 0 0-3.904 0l-4.588 4.579a2.76 2.76 0 0 0 0 3.912l3.584 3.588a16.215 16.215 0 0 1-3.456 5.091 16.249 16.249 0 0 1-5.088 3.464l-3.584-3.588a2.752 2.752 0 0 0-3.01-.603 2.715 2.715 0 0 0-.894.603L.812 22.437a2.76 2.76 0 0 0 0 3.912l4.256 4.256a4.79 4.79 0 0 0 3.368 1.396c.26 0 .512-.02.768-.064C14.5 31.065 19.756 28.245 24 24.006c4.24-4.247 7.056-9.503 7.936-14.802a4.768 4.768 0 0 0-1.332-4.136zM29.1 8.727c-.78 4.715-3.316 9.419-7.136 13.238S13.444 28.32 8.728 29.1c-.592.1-1.2-.1-1.632-.528l-4.18-4.18 4.432-4.436 4.828 4.836.864-.32a19.243 19.243 0 0 0 11.428-11.431l.32-.864-4.832-4.827 4.432-4.435 4.18 4.179c.432.432.632 1.04.532 1.632z"/></symbol><symbol id="icon-facebook" viewBox="0 0 32 32"><path stroke-linejoin="round" stroke-linecap="round" stroke-width="2.286" d="M24 2.667h-4a6.67 6.67 0 0 0-6.667 6.667v4h-4v5.333h4v10.667h5.333V18.667h4l1.333-5.333h-5.333v-4A1.333 1.333 0 0 1 19.999 8h4V2.667z"/></symbol><symbol id="icon-logo_L" viewBox="0 0 32 32"><path d="M13.081 28.274v-4.068l-.105-.666v-6.803c0-1.566-.444-2.77-1.333-3.612-.865-.842-2.163-1.262-3.893-1.262-1.192 0-2.326.199-3.402.596s-1.987.924-2.735 1.578L.491 12.178c.935-.795 2.057-1.403 3.367-1.824a12.797 12.797 0 0 1 4.138-.666c2.385 0 4.22.596 5.506 1.789 1.309 1.169 1.964 2.957 1.964 5.365v11.432h-2.385zm-6.348.175c-1.379 0-2.583-.222-3.612-.666-1.005-.468-1.777-1.099-2.315-1.894-.538-.818-.807-1.753-.807-2.805 0-.959.222-1.824.666-2.595.468-.795 1.216-1.426 2.244-1.894 1.052-.491 2.455-.736 4.208-.736h6.347v1.859H7.187c-1.777 0-3.016.316-3.717.947-.678.631-1.017 1.414-1.017 2.35 0 1.052.409 1.894 1.227 2.525s1.964.947 3.437.947c1.403 0 2.607-.316 3.612-.947 1.029-.655 1.777-1.59 2.244-2.805l.561 1.718c-.468 1.216-1.286 2.186-2.455 2.911-1.146.725-2.595 1.087-4.348 1.087z"/><path d="M23.39 28.449c-1.917 0-3.6-.397-5.05-1.192-1.45-.818-2.583-1.929-3.402-3.332-.818-1.426-1.227-3.051-1.227-4.875s.386-3.437 1.157-4.839c.795-1.403 1.87-2.502 3.226-3.296 1.379-.818 2.922-1.227 4.629-1.227 1.73 0 3.261.397 4.594 1.192 1.356.771 2.42 1.87 3.191 3.296.771 1.403 1.157 3.028 1.157 4.875 0 .117-.012.245-.035.386v.386H15.604v-1.859h14.694l-.982.736c0-1.333-.292-2.513-.877-3.542-.561-1.052-1.333-1.87-2.315-2.455s-2.116-.877-3.402-.877c-1.262 0-2.396.292-3.402.877s-1.788 1.403-2.35 2.455c-.561 1.052-.842 2.256-.842 3.612v.386c0 1.403.304 2.642.912 3.717a6.811 6.811 0 0 0 2.595 2.49c1.122.584 2.396.877 3.822.877 1.122 0 2.163-.199 3.121-.596a6.479 6.479 0 0 0 2.525-1.824l1.403 1.613c-.818.982-1.847 1.73-3.086 2.244-1.216.514-2.56.771-4.033.771zM29.633 5.918H17.359v-2.63h12.274v2.63z"/></symbol><symbol id="icon-Logo_M" viewBox="0 0 32 32"><path d="M12.711 27.852v-3.848l-.172-.721v-6.561c0-1.397-.412-2.473-1.237-3.229-.802-.779-2.015-1.168-3.641-1.168-1.076 0-2.13.183-3.16.55-1.031.344-1.901.813-2.611 1.409L.516 11.811c.939-.756 2.061-1.328 3.367-1.718a13.95 13.95 0 0 1 4.157-.618c2.496 0 4.42.607 5.771 1.821s2.027 3.069 2.027 5.565v10.993h-3.126zm-5.978.206c-1.351 0-2.542-.229-3.573-.687-1.008-.458-1.786-1.088-2.336-1.889C.274 24.658 0 23.73 0 22.699c0-.985.229-1.878.687-2.68.481-.802 1.248-1.443 2.302-1.924 1.076-.481 2.519-.721 4.329-.721h5.771v2.37H7.455c-1.649 0-2.76.275-3.332.825s-.859 1.214-.859 1.992c0 .893.355 1.615 1.065 2.164.71.527 1.695.79 2.954.79 1.237 0 2.313-.275 3.229-.825.939-.55 1.615-1.351 2.027-2.405l.653 2.267c-.435 1.076-1.202 1.935-2.302 2.576-1.099.618-2.485.927-4.157.927z"/><path d="M23.257 28.058c-1.947 0-3.664-.401-5.153-1.202-1.466-.802-2.611-1.901-3.435-3.298-.802-1.397-1.202-3-1.202-4.809s.389-3.412 1.168-4.809a8.591 8.591 0 0 1 3.264-3.264c1.397-.802 2.966-1.202 4.706-1.202 1.763 0 3.321.389 4.672 1.168s2.405 1.878 3.16 3.298c.779 1.397 1.168 3.035 1.168 4.913 0 .137-.011.298-.034.481 0 .183-.011.355-.034.515H16.044v-2.37H29.82l-1.34.824c.023-1.168-.218-2.21-.721-3.126s-1.202-1.626-2.096-2.13c-.87-.527-1.889-.79-3.057-.79-1.145 0-2.164.263-3.057.79a5.306 5.306 0 0 0-2.096 2.164c-.504.916-.756 1.97-.756 3.16v.55c0 1.214.275 2.302.825 3.264.573.939 1.363 1.672 2.37 2.199s2.164.79 3.47.79c1.076 0 2.05-.183 2.92-.55a6.391 6.391 0 0 0 2.336-1.649l1.821 2.13c-.825.962-1.855 1.695-3.092 2.199-1.214.504-2.576.756-4.088.756zM29.2 6.055H17.176V3.479H29.2v2.576z"/></symbol><symbol id="icon-burger" viewBox="0 0 36 32"><path d="M0 0h36v4H0V0zm12 14h24v4H12v-4zM0 28h36v4H0v-4z"/></symbol><symbol id="icon-close_btn" viewBox="0 0 32 32"><path stroke-linejoin="round" stroke-linecap="round" stroke-width="2.667" d="M24 8 8 24M8 8l16 16"/></symbol><symbol id="icon-thankyou" viewBox="0 0 42 32"><path fill="#f58b3d" style="fill:var(--color1,#f58b3d)" opacity=".255" d="M39.13 25.599c.542 3.691-12.608 6.099-23.927 4.419S-1.308 21.776 4.093 18.28c5.401-3.496 34.495 3.628 35.037 7.319z"/><path fill="#f58b3d" style="fill:var(--color1,#f58b3d)" d="M22.863 10.218c.205-.142.522-.052.728.032.079.032.282.136.433.253a8.04 8.04 0 0 1-.181-1.27c-.006-.089.002-.189.009-.29l.007-.103a.057.057 0 0 1-.016-.034l-.002.015c0 .006-.001.009-.002.01s-.003-.002-.007-.008a.03.03 0 0 0-.005-.007c-.152-.207-.28-.441-.298-.698-.015-.218.182-.63.46-.344.125.127.092 1.022-.095 1.077.05.296.113.592.192.884a.145.145 0 0 1 .036-.001 2.28 2.28 0 0 1 .002-.179c.028-.235.244-.711.587-.619.263.071.102.364.012.492-.144.206-.308.296-.514.403-.004.044-.035.07-.073.079.139.472.32.932.558 1.367l.006-.028c.03-.132.066-.286.088-.318.117-.169.375-.376.613-.276.5.21-.043.815-.469.881a.184.184 0 0 1-.056.05c.083.131.171.26.266.385.142.188.295.376.454.562.005-.146.068-.471.086-.506.109-.212.424-.431.679-.28.287.17.027.491-.137.637-.067.06-.399.278-.516.279.386.44.813.872 1.246 1.289a6.914 6.914 0 0 1-.078-.757c.027-.294.239-.765.658-.65.406.111.226.6.087.833a1.27 1.27 0 0 1-.341.383c-.025.018-.058.032-.091.047a.384.384 0 0 0-.105.058c-.023.021-.03.044-.037.067a.122.122 0 0 1-.041.07c.234.224.47.444.703.657.11.101.222.2.334.297.062-.023.15.007.145.087a.094.094 0 0 1-.008.031l.258.216a.492.492 0 0 1 .003-.09c-.062.081-.06-.037-.058-.127a.565.565 0 0 0-.001-.075c-.009-.058-.021-.115-.033-.172-.025-.122-.05-.243-.049-.369.003-.267.188-.715.579-.556.359.146.229.542.093.79a2.252 2.252 0 0 1-.326.431 1.068 1.068 0 0 0-.07.089c-.036.048-.071.095-.097.112.334.272.675.537 1.017.801l.458.356c.007-.026.012-.052.017-.076-.009.01-.022.014-.039.013l-.018-.079c-.094-.39-.38-1.58.395-1.349.568.169.167 1.205-.257 1.567.257.202.512.407.761.618.18.153.355.311.523.474-.087-.211-.169-.485-.115-.702.078-.317.445-.616.803-.436.446.226.103.534-.219.823-.165.148-.323.29-.369.414.534.535.99 1.13 1.295 1.807.331.737.639 1.726.469 2.55.031-.362-.103-.817-.197-1.137l-.036-.122a6.17 6.17 0 0 0-.608-1.429c-.425-.723-.987-1.336-1.635-1.893-.148.047-.308.134-.441.206a2.17 2.17 0 0 1-.204.103c-.248.098-.724.237-.882-.07-.155-.302.241-.471.487-.539.238-.065.452-.057.673-.004a48.735 48.735 0 0 0-1.046-.814l-.194-.148a3.27 3.27 0 0 0-.293.266c-.333.325-.727.71-1.078.396-.531-.475.485-.958.917-.92a.884.884 0 0 1 .155.029c-.441-.341-.876-.69-1.287-1.062-.074.012-.191.111-.332.23-.317.267-.753.634-1.082.345-.237-.209-.156-.534.073-.72s.564-.186.848-.124c.123.027.236.079.341.142l.013.001c-.404-.371-.811-.75-1.203-1.142l-.021.006a.112.112 0 0 1-.1.03l-.062.019c-.31.098-.709.223-1.018.169-.228-.04-.434-.208-.241-.416.156-.169.581-.145.789-.105.101.02.211.076.322.133.046.024.093.048.139.069a.093.093 0 0 1 .056-.043 14.957 14.957 0 0 1-1.091-1.227c-.101.014-.214.055-.33.097-.279.101-.578.209-.793-.024-.317-.344.279-.544.563-.511.096.011.19.036.281.068a4.317 4.317 0 0 1-.56-1.117l-.004.002-.006.003.006-.003.004-.002a2.672 2.672 0 0 1-.037-.118.42.42 0 0 0-.053-.023c.129.081-.415.121-.516.128-.225.016-.527.023-.692-.146-.139-.141-.13-.35.039-.468zm10.36 11.888a.885.885 0 0 1-.078.319c.033-.103.059-.209.078-.319z"/><path fill="#f1f447" style="fill:var(--color2,#f1f447)" opacity=".2" d="M12.645 2.591c-.149-.103-.381-.037-.532.024a1.577 1.577 0 0 0-.316.183 5.795 5.795 0 0 0 .133-.918c.004-.065-.001-.137-.006-.21l-.005-.074a.045.045 0 0 0 .012-.025.05.05 0 0 1 .001.011l.001.007.005-.006a.018.018 0 0 1 .004-.005c.111-.15.205-.319.218-.504.011-.157-.132-.455-.336-.249-.091.092-.068.739.069.778a7.17 7.17 0 0 1-.14.64c-.009-.001-.017-.002-.026 0a1.67 1.67 0 0 0-.001-.13c-.02-.17-.178-.514-.428-.447-.192.052-.075.263-.009.356.105.149.224.214.375.291.003.032.026.051.053.057a4.911 4.911 0 0 1-.408.988l-.005-.02a1.338 1.338 0 0 0-.064-.23c-.085-.122-.274-.271-.448-.199-.365.152.031.589.342.637a.154.154 0 0 0 .041.037c-.06.095-.125.188-.194.278a8.59 8.59 0 0 1-.332.407 1.987 1.987 0 0 0-.063-.366c-.08-.153-.309-.311-.496-.202-.21.123-.02.355.1.46.049.043.291.201.377.202-.282.318-.594.631-.911.933.026-.135.061-.506.057-.548-.02-.213-.175-.553-.48-.47-.297.08-.166.434-.064.603a.9.9 0 0 0 .249.277c.018.013.043.023.067.034.029.013.058.025.077.042.017.015.022.032.027.049s.011.035.03.05a43.29 43.29 0 0 1-.513.476c-.08.073-.162.144-.244.215-.045-.017-.109.005-.106.063 0 .008.003.016.005.022l-.189.156a.301.301 0 0 0-.002-.065c.046.058.044-.027.042-.092 0-.023-.001-.043.001-.054a2.47 2.47 0 0 1 .024-.124 1.2 1.2 0 0 0 .036-.267c-.002-.193-.137-.517-.423-.402-.262.106-.167.392-.068.571.063.114.148.215.238.312a.754.754 0 0 1 .051.064c.026.034.052.068.071.081-.244.197-.493.388-.742.58l-.335.258a.691.691 0 0 1-.012-.055c.007.007.016.01.029.01l.014-.057c.069-.282.278-1.143-.288-.976-.415.123-.123.871.187 1.133-.188.146-.374.295-.556.447-.131.11-.259.225-.382.343.064-.153.123-.351.084-.508-.057-.229-.325-.445-.586-.315-.326.163-.075.386.16.595.12.107.236.21.269.299-.39.387-.723.817-.946 1.307-.242.533-.467 1.248-.343 1.844-.023-.262.075-.591.144-.822l.026-.089c.104-.358.251-.707.445-1.033.311-.523.721-.967 1.195-1.37.108.034.225.097.322.149.059.032.111.06.149.074.181.07.529.171.644-.051.114-.218-.176-.341-.355-.389a.966.966 0 0 0-.492-.003c.251-.201.508-.395.764-.589l.142-.107c.065.048.137.118.214.192.243.235.53.513.787.286.388-.344-.353-.692-.669-.665a.609.609 0 0 0-.113.021 15.5 15.5 0 0 0 .94-.769c.054.009.139.08.242.166.231.193.55.458.79.249.173-.151.114-.386-.053-.521s-.412-.135-.619-.089a.851.851 0 0 0-.249.103h-.01a28.3 28.3 0 0 0 .879-.826l.015.004c.017.019.046.026.073.022l.044.014c.227.07.518.161.744.122.166-.029.317-.151.177-.301-.114-.122-.425-.104-.576-.075-.074.014-.154.055-.235.096-.034.017-.068.035-.101.05a.067.067 0 0 0-.041-.031c.283-.285.552-.58.797-.887.074.01.156.04.241.07.204.073.422.151.579-.018.232-.249-.204-.393-.411-.37a.903.903 0 0 0-.205.05c.178-.253.314-.524.41-.808l.003.001.004.002-.004-.002-.003-.002c.01-.028.019-.057.027-.086a.424.424 0 0 1 .039-.017c-.094.059.303.087.377.092.164.012.384.016.505-.105.101-.102.095-.253-.028-.338zm-7.577 8.576c.007.08.029.152.071.212a1.124 1.124 0 0 1-.071-.212z"/><path fill="#b45661" style="fill:var(--color3,#b45661)" opacity=".49" d="M28.784 16.63c.805-.038 1.802.39 1.888 1.187.062.579.043 1.156.14 1.734.077.462.24.906.463 1.326.214.405.659.749.775 1.182.074.276.032.663-.069.933-.123.328-.058.302.188.577.482.539.917 1.091 1.224 1.735.443.927.733 2.01.569 3.025-.021.129-.046.591-.241.624-.218.036-.116-.228-.104-.314.074-.545.14-1.022.051-1.575-.345-2.136-2.028-3.543-3.125-5.355-.06-.093-.188-.316-.276-.463-.14-.232-.28-.673-.469-.845-.356-.324-.029.327.041.451.088.157.184.324.274.462.411.639.87 1.336 1.295 1.994-1.837.381-3.131-1.629-3.624-2.95-.406-1.089-.892-3.634 1.001-3.727z"/><path fill="#e7502f" style="fill:var(--color4,#e7502f)" opacity=".49" d="M39.581 14.609c-1.346.097-2.211.906-2.613 2.037-.217.61-.242 1.236-.362 1.862-.181.942-.572 1.657-1.334 2.328-.236.208-.41.421-.534.65a2.785 2.785 0 0 0-.616.802c-.201.403-.257.886-.026 1.288.062.108.218.325.379.423-.603 1.168-.934 2.448-.897 3.726.023.771.064 1.543.112 2.314.013.207.087.549.198.202.102-.318-.026-.816-.038-1.147-.057-1.615-.107-3.084.624-4.593.077-.158.158-.315.242-.471l.014-.009.009.007.021-.031a.438.438 0 0 0 .066-.084c.065-.082.138-.178.138-.231v-.001c.452-.672.97-1.307 1.499-1.929-.004.005.574-.712.485-.316-.043.191-.468.554-.64.756-.38.45-.826 1.02-1.196 1.571-.05.026-.12.154-.171.249-.028.048-.054.097-.08.14 1.313.395 2.335-.4 3.031-1.326l.002-.003c.212-.256.429-.509.7-.711.453-.337.937-.397 1.471-.563 1.455-.453 2.074-2.169 2.27-3.442.222-1.437-.863-3.64-2.756-3.498z"/><path fill="#e7502f" style="fill:var(--color4,#e7502f)" opacity=".49" d="M36.921 10.585c-1.382 1.309-2.05 3.125-2.578 4.832-.591 1.906-.981 3.842-.996 5.825-.01 1.302-.049 2.613.035 3.914.03.462.08.925.161 1.382.007.038.187 1.058.359.82.098-.135-.185-1.058-.206-1.212-.12-.866-.148-1.739-.142-2.611.01-1.436-.037-2.865.123-4.297.024-.214.043-.438.098-.647.059-.222-.016-.125.177-.213.187-.085.419-.073.613-.181.771-.426 1.166-1.519 1.473-2.236.351-.82.565-1.695.735-2.559.125-.634.215-1.265.265-1.907.016-.202.017-.414.061-.613.012-.054.071-.149.069-.196-.005-.101-.071-.16-.077-.244a3.957 3.957 0 0 0-.17.146zM29.385 28.026c0 2.165 1.928 3.92 4.307 3.92s4.307-1.755 4.307-3.92z"/><path fill="#b45661" style="fill:var(--color3,#b45661)" opacity=".49" d="M36.644 24.594c1.066-.071 2.257.711 2.771 1.526.414.657.345 1.519.089 2.217-.172.467-.546 1.133-1.17 1.14-.781.008-.818-.87-.834-1.383-.02-.683-.115-1.277-.706-1.742-.073-.057-.15-.111-.226-.165-.068-.048-.136-.095-.201-.146l-.032-.024c-.209-.16-.428-.328-.455-.591-.039-.382.198-.45.56-.38a.895.895 0 0 1 .087.028c.185.064.579.2.504.037-.028-.061-.13-.11-.26-.146-.335-.033-.734-.071-.849-.048-1.239.247-1.721 1.809-1.849 2.801a8.795 8.795 0 0 0-.035.322h-.228c.016-.26.036-.519.084-.776.183-.983.754-2.426 2.006-2.586.046-.006.216-.007.422.004a.816.816 0 0 1 .322-.087z"/><path fill="#b45661" style="fill:var(--color3,#b45661)" opacity=".25" d="M10.516 9.471c.248-.322.708-1.139 1.057-1.254.225-.074.159.692.162.838.011.565-.05 1.127-.124 1.687-.135 1.011-.574 1.911-1.178 2.771-.31.443-.675.891-1.179 1.167-.232.127-.511.149-.741.258-.267.128-.122.024-.242.278-.167.351-.22.805-.298 1.18-.355 1.722-1.214 10.823-1.065 12.574.013.155-.225.192-.237.003-.063-1.005.483-7.963.758-10.238s.554-4.286.834-5.073c.339-.955.952-2.104 1.461-2.994.237-.414.495-.813.79-1.196z"/><path fill="#f1f447" style="fill:var(--color2,#f1f447)" opacity=".25" d="M12.357 20.631c.645-.431 1.344.383.76.814-.323.238-.66.154-.85-.045-.123.137-.239.28-.35.401-.338.368-.657.745-.963 1.131-.634.801-1.177 1.648-1.746 2.479a52.653 52.653 0 0 0-1.625 2.486c-.431.713-1.004 1.551-1.152 2.332.224-1.657 1.072-3.249 2.083-4.71 1.002-1.449 2.153-3.031 3.705-4.174-.158-.211-.162-.513.138-.713z"/><path fill="#b45661" style="fill:var(--color3,#b45661)" opacity=".25" d="M.113 16.59c.361.064.951.808 1.249 1.091.354.337.675.695.977 1.071a17.907 17.907 0 0 1 1.729 2.566 22.626 22.626 0 0 1 1.924 4.556c.287.975.473 1.985.584 2.988.021.189.239 1.648-.075 1.687-.282.035-.195-1.108-.209-1.263-.154-1.754-.616-3.461-1.257-5.114-.14-.36-.27-.801-.493-1.125-.161-.233-.001-.152-.284-.24-.243-.076-.52-.057-.769-.15-.541-.202-.973-.593-1.353-.987-.737-.766-1.322-1.594-1.626-2.575-.169-.544-.324-1.091-.41-1.652-.022-.145-.218-.894.015-.852z"/><path fill="#e7502f" style="fill:var(--color4,#e7502f)" opacity=".25" d="M1.538 4.223c1.36 2.147 2.478 4.504 3.199 6.893.437 1.447.743 2.932 1.047 4.406.47 2.282.915 4.565 1.042 6.888.127 2.336.379 5.031-.462 7.282.42-2.285.02-4.717-.051-7.016a38.218 38.218 0 0 0-.26-3.275c-.125-1.058-.329-2.112-.518-3.162-.092-.511-.19-1.022-.288-1.532-.03-.152-.042-.604-.148-.708s-.652-.147-.823-.224a4.397 4.397 0 0 1-.955-.607c-.55-.445-1.028-1.027-1.406-1.6C1.041 10.241.692 8.622.71 7.085c.003-.298.531-3.511.319-3.555a.672.672 0 0 0 .036-.042c.16.244.318.49.474.737z"/><path fill="#e7502f" style="fill:var(--color4,#e7502f)" opacity=".25" d="M16.218 11.965c.021-.028.158-.219.089-.207.14-.025-.193.211.156.066-.166.142-.07.327-.068.519.004.311-.054.62-.118.924a5.95 5.95 0 0 1-.473 1.397 6.412 6.412 0 0 1-2.261 2.524c-.477.301-.945.404-1.489.542-.344.088-.371.249-.554.553-.38.632-.753 1.262-1.088 1.916a64.92 64.92 0 0 0-1.155 2.356c-1.234 2.675-2.239 5.447-2.766 8.316-.013-1.69.417-3.431.959-5.043.395-1.174.909-2.306 1.457-3.426.133-.271.334-.62.391-.92.039-.21-.081-.412-.137-.633-.216-.861-.2-1.826-.011-2.692.209-.955.812-1.398 1.834-1.533.373-.049.848-.031 1.191-.176.373-.158.527-.677.739-1.009a13.937 13.937 0 0 1 2.024-2.506c.215-.209.447-.401.692-.58.155-.113.482-.251.588-.39z"/><path fill="#f1f447" style="fill:var(--color2,#f1f447)" opacity=".25" d="M4.475 29.354c-.026-.162.112-.308.292-.308h3.624c.18 0 .318.146.292.308l-.28 1.728c-.085.527-.582.917-1.167.917H5.923c-.585 0-1.082-.39-1.168-.917l-.28-1.728z"/><path fill="#f58b3d" style="fill:var(--color1,#f58b3d)" d="M1.5 29.93c0 1.143.099 2.07 1.43 2.07s1.43-.927 1.43-2.07z"/><path fill="#f58b3d" style="fill:var(--color1,#f58b3d)" d="M3.325 29.217a2.472 2.472 0 0 0-.131.234 2.968 2.968 0 0 1 .036-.495c.046-.286.117-.571.184-.855.048-.204.045-.571.226-.734.05-.035.062.034.062.064.001.006 0-.122-.049-.1-.287.135-.381.56-.473.773-.134.31-.248.628-.296.951a2.023 2.023 0 0 0-.02.245l-.029-.066a4.35 4.35 0 0 0-.669-1.018c-.069-.078-.933-.852-1-.733a.091.091 0 0 0 .042.043c.001.001.001.001.001-.001.051.075.195.19.24.255.113.165.201.339.29.51.189.362.364.727.534 1.094.039.085.081.17.123.255-.433-.569-1.011-1.085-1.807-1.38.272.126.45.362.633.544.221.219.454.431.676.65.262.258.569.529.821.814.244.466.48.932.627 1.421-.06-.169-.005-.403-.015-.58a3.53 3.53 0 0 0-.051-.421.794.794 0 0 1 .069.185c-.011-.098-.024-.196-.037-.294.035-.091.069-.176.092-.246.118-.359.259-.712.451-1.056.178-.318.381-.633.603-.937.103-.142.208-.284.313-.425.068-.093.133-.242.228-.33-.614.511-1.285 1.025-1.675 1.639zM40.574 5.894c-.176-.534-.589-.953-1.018-1.336-.835-.746-1.285-1.207-1.582-2.299-.175-.642-.353-1.322-.908-1.788-.404-.339-1.1-.624-1.641-.381-.832.452-1.055 1.379-.971 2.209.104 1.029.632 1.664 1.647 2.043.572.213.952.495 1.262.986.248.392.393.884.705 1.24.466.532 1.05.768 1.769.68-.674-1.128-1.461-2.267-2.411-3.217-.089-.095-.613-.461-.508-.624.117-.179.655.494.651.49.276.288.531.595.782.904l-.002.001c.258.317.514.639.766.965.102.138.201.278.295.421.139.21.359.806.587.936a.382.382 0 0 0 .136.049c.155.231.306.464.45.7.375.616.697 1.266.844 1.961.043.203.013.962.165 1.108.278.268.197-.248.18-.404-.138-1.289-.647-2.388-1.385-3.472.227-.27.26-.956.188-1.173zM31.045 6.517c.293-.314.999-.368 1.43-.347.534.026 1.082.144 1.589.287.836.235 1.649.665 2.386 1.081.089.05 1.182.649 1.086.754s-1.17-.607-1.409-.729c-.511-.262-.979-.571-1.542-.744a6.015 6.015 0 0 0-1.812-.245c-.079.001-.335-.049-.34.057-.006.104.419.05.494.05.309.003.62.029.925.078a4.618 4.618 0 0 1 1.597.558c-.136.289-.464.422-.807.35-.297-.062-.585-.217-.876-.261-.2-.031-.4-.012-.594.039-.512.135-.807.412-1.369.22-.441-.151-1.178-.694-.757-1.146zM29.783 1.449c-.651-.043-1.379.43-1.693.922-.253.397-.211.918-.054 1.34.105.282.334.685.715.689.477.005.5-.526.509-.836.012-.413.07-.772.431-1.053.045-.035.091-.067.138-.1.041-.029.083-.058.123-.088l.019-.015c.128-.097.262-.198.278-.357.024-.231-.121-.272-.342-.229-.007.001-.027.008-.053.017-.113.038-.354.121-.308.022.017-.037.08-.066.159-.088.205-.02.449-.043.519-.029.757.149 1.052 1.093 1.13 1.693.009.068.016.136.022.204h.139c-.01-.16-.022-.32-.052-.479-.112-.594-.46-1.466-1.225-1.563a2.208 2.208 0 0 0-.258.002.5.5 0 0 0-.197-.052z"/></symbol><symbol xmlns="http://www.w3.org/2000/svg" id="icon-instagram" viewBox="0 0 32 32"><path stroke-linejoin="round" stroke-linecap="round" stroke-width="2.286" d="M22.666 2.667H9.333a6.667 6.667 0 0 0-6.667 6.667v13.333a6.667 6.667 0 0 0 6.667 6.667h13.333a6.667 6.667 0 0 0 6.667-6.667V9.334a6.667 6.667 0 0 0-6.667-6.667z"/><path stroke-linejoin="round" stroke-linecap="round" stroke-width="2.286" d="M21.333 15.16a5.336 5.336 0 0 1-6.123 6.049 5.33 5.33 0 0 1-3.916-7.663 5.33 5.33 0 0 1 5.546-2.878 5.334 5.334 0 0 1 4.493 4.493zm2.001-6.493h.013"/></symbol><symbol xmlns="http://www.w3.org/2000/svg" id="icon-arrow-left" viewBox="0 0 49 32"><path d="m.05 15.8 1.6-1.6c.1-.1.25-.1.35 0s.1.25 0 .35L.85 15.7h15.9C16.9 7.05 24 0 32.75 0c8.8 0 16 7.2 16 16s-7.2 16-16 16c-8.75 0-15.85-7.05-16-15.75H.85L2 17.4c.1.1.1.25 0 .35s-.25.1-.35 0l-1.6-1.6C0 16.1 0 15.9.05 15.8zm32.7 15.7c8.55 0 15.5-6.95 15.5-15.5S41.3.5 32.75.5C24.3.5 17.4 7.3 17.25 15.75h16v.5h-16c.15 8.45 7.05 15.25 15.5 15.25z"/></symbol><symbol xmlns="http://www.w3.org/2000/svg" id="icon-arrow-right" viewBox="0 0 49 32"><path d="m48.7 15.8-1.6-1.6c-.1-.1-.25-.1-.35 0s-.1.25 0 .35l1.15 1.15H32C31.85 7.05 24.75 0 16 0 7.2 0 0 7.2 0 16s7.2 16 16 16c8.75 0 15.85-7.05 16-15.75h15.9l-1.15 1.15c-.1.1-.1.25 0 .35s.25.1.35 0l1.6-1.6c.05-.05.05-.25 0-.35zM16 31.5C7.45 31.5.5 24.55.5 16S7.45.5 16 .5c8.45 0 15.35 6.8 15.5 15.25h-16v.5h16C31.35 24.7 24.45 31.5 16 31.5z"/></symbol></defs></svg>